name Walk2.mot
datacolumns 19
datarows 20
range 1.58500000 1.68000000
endheader

                time	   L_ground_force_vx	   L_ground_force_vy	   L_ground_force_vz	   L_ground_force_px	   L_ground_force_py	   L_ground_force_pz	   R_ground_force_vx	   R_ground_force_vy	   R_ground_force_vz	   R_ground_force_px	   R_ground_force_py	   R_ground_force_pz	   L_ground_torque_x	   L_ground_torque_y	   L_ground_torque_z	   R_ground_torque_x	   R_ground_torque_y	   R_ground_torque_z	
          1.58500000	          0.01826579	          0.04328744	         -0.00364613	         -0.00007773	          0.00000000	         -0.00000628	        -27.75969593	        433.58874407	        -28.06133604	          0.55962876	          0.00000000	          0.06089878	          0.00000000	         -0.00010720	          0.00000000	          0.00000000	          1.78402855	          0.00000000	
          1.59000000	          0.01077312	          0.02327256	         -0.00201778	         -0.00005920	          0.00000000	         -0.00000406	        -26.39051233	        429.66106359	        -26.25467581	          0.56238809	          0.00000000	          0.06071050	          0.00000000	         -0.00009121	          0.00000000	          0.00000000	          1.55912792	          0.00000000	
          1.59500000	          0.00511619	          0.00859683	         -0.00081397	         -0.00004263	          0.00000000	         -0.00000232	        -24.88607981	        426.85603516	        -24.58339917	          0.56464359	          0.00000000	          0.06050841	          0.00000000	         -0.00007375	          0.00000000	          0.00000000	          1.32231139	          0.00000000	
          1.60000000	          0.00108389	         -0.00149434	          0.00002239	         -0.00002864	          0.00000000	         -0.00000101	        -23.24597609	        424.96090703	        -23.07532537	          0.56643977	          0.00000000	          0.06030433	          0.00000000	         -0.00005672	          0.00000000	          0.00000000	          1.07025606	          0.00000000	
          1.60500000	         -0.00158768	         -0.00784742	          0.00055695	         -0.00001739	          0.00000000	         -0.00000010	        -21.47659175	        423.77263046	        -21.75138858	          0.56783356	          0.00000000	          0.06010791	          0.00000000	         -0.00004131	          0.00000000	          0.00000000	          0.80089335	          0.00000000	
          1.61000000	         -0.00317533	         -0.01130090	          0.00085571	         -0.00000881	          0.00000000	          0.00000049	        -19.59170303	        423.11844245	        -20.62788554	          0.56888860	          0.00000000	          0.05992724	          0.00000000	         -0.00002816	          0.00000000	          0.00000000	          0.51326428	          0.00000000	
          1.61500000	         -0.00394234	         -0.01262178	          0.00097963	         -0.00000261	          0.00000000	          0.00000084	        -17.61142193	        422.86789692	        -19.71720684	          0.56967104	          0.00000000	          0.05976850	          0.00000000	         -0.00001750	          0.00000000	          0.00000000	          0.20778660	          0.00000000	
          1.62000000	         -0.00412241	         -0.01247061	          0.00098161	          0.00000157	          0.00000000	          0.00000099	        -15.55844448	        422.93717178	        -19.02507378	          0.57024299	          0.00000000	          0.05963437	          0.00000000	         -0.00000928	          0.00000000	          0.00000000	         -0.11411103	          0.00000000	
          1.62500000	         -0.00391185	         -0.01138739	          0.00090525	          0.00000413	          0.00000000	          0.00000101	        -13.45509322	        423.29098000	        -18.54771420	          0.57065934	          0.00000000	          0.05952440	          0.00000000	         -0.00000328	          0.00000000	          0.00000000	         -0.45070785	          0.00000000	
          1.63000000	         -0.00346745	         -0.00979213	          0.00078469	          0.00000545	          0.00000000	          0.00000094	        -11.32080638	        423.93631672	        -18.27187728	          0.57096496	          0.00000000	          0.05943683	          0.00000000	          0.00000083	          0.00000000	          0.00000000	         -0.80011192	          0.00000000	
          1.63500000	         -0.00290823	         -0.00799469	          0.00064532	          0.00000586	          0.00000000	          0.00000083	         -9.17071279	        424.90873879	        -18.17775632	          0.57119529	          0.00000000	          0.05936814	          0.00000000	          0.00000340	          0.00000000	          0.00000000	         -1.16039533	          0.00000000	
          1.64000000	         -0.00231960	         -0.00620974	          0.00050490	          0.00000566	          0.00000000	          0.00000068	         -7.01474263	        426.25880590	        -18.24196751	          0.57137710	          0.00000000	          0.05931285	          0.00000000	          0.00000478	          0.00000000	          0.00000000	         -1.52984435	          0.00000000	
          1.64500000	         -0.00175868	         -0.00457397	          0.00037492	          0.00000508	          0.00000000	          0.00000054	         -4.85696119	        428.04174664	        -18.43894006	          0.57153124	          0.00000000	          0.05926498	          0.00000000	          0.00000529	          0.00000000	          0.00000000	         -1.90754720	          0.00000000	
          1.65000000	         -0.00125988	         -0.00316324	          0.00026192	          0.00000431	          0.00000000	          0.00000040	         -2.69570293	        430.30684150	        -18.74137961	          0.57167210	          0.00000000	          0.05921752	          0.00000000	          0.00000519	          0.00000000	          0.00000000	         -2.29338213	          0.00000000	
          1.65500000	         -0.00084036	         -0.00200839	          0.00016874	          0.00000348	          0.00000000	          0.00000029	         -0.52588315	        433.09136680	        -19.11972611	          0.57181143	          0.00000000	          0.05916280	          0.00000000	          0.00000472	          0.00000000	          0.00000000	         -2.68727843	          0.00000000	
          1.66000000	         -0.00050488	         -0.00110897	          0.00009564	          0.00000267	          0.00000000	          0.00000019	          1.65690128	        436.42307273	        -19.54266841	          0.57196137	          0.00000000	          0.05909319	          0.00000000	          0.00000405	          0.00000000	          0.00000000	         -3.08943141	          0.00000000	
          1.66500000	         -0.00024980	         -0.00044448	          0.00004120	          0.00000194	          0.00000000	          0.00000011	          3.85478973	        440.32219545	        -19.97791809	          0.57213097	          0.00000000	          0.05900182	          0.00000000	          0.00000329	          0.00000000	          0.00000000	         -3.49986651	          0.00000000	
          1.67000000	         -0.00006648	          0.00001680	          0.00000303	          0.00000131	          0.00000000	          0.00000005	          6.06769396	        444.80163713	        -20.39336878	          0.57232659	          0.00000000	          0.05888289	          0.00000000	          0.00000255	          0.00000000	          0.00000000	         -3.91771382	          0.00000000	
          1.67500000	          0.00005635	          0.00031128	         -0.00002169	          0.00000081	          0.00000000	          0.00000001	          8.29226393	        449.86926229	        -20.75804439	          0.57255375	          0.00000000	          0.05873238	          0.00000000	          0.00000187	          0.00000000	          0.00000000	         -4.34156144	          0.00000000	
          1.68000000	          0.00013065	          0.00047550	         -0.00003583	          0.00000042	          0.00000000	         -0.00000002	         10.52268692	        455.52694139	        -21.04329087	          0.57281516	          0.00000000	          0.05854840	          0.00000000	          0.00000129	          0.00000000	          0.00000000	         -4.76973550	          0.00000000	
